solid OpenSCAD_Model
  facet normal -1 0 0
    outer loop
      vertex 0 38 30
      vertex 0 68 60
      vertex 0 68 0
    endloop
  endfacet
  facet normal -1 -0 0
    outer loop
      vertex 0 68 60
      vertex 0 38 30
      vertex 0 59.0062 60
    endloop
  endfacet
  facet normal -1 0 0
    outer loop
      vertex 0 0 0
      vertex 0 38 30
      vertex 0 68 0
    endloop
  endfacet
  facet normal -1 -0 0
    outer loop
      vertex 0 38 30
      vertex 0 0 0
      vertex 0 0 30
    endloop
  endfacet
  facet normal 0 0 1
    outer loop
      vertex 70 38 30
      vertex 58.4 19 30
      vertex 70 0 30
    endloop
  endfacet
  facet normal 0 0 1
    outer loop
      vertex 70 38 30
      vertex 58.3884 19.2942 30
      vertex 58.4 19 30
    endloop
  endfacet
  facet normal 0 0 1
    outer loop
      vertex 70 38 30
      vertex 58.3538 19.5866 30
      vertex 58.3884 19.2942 30
    endloop
  endfacet
  facet normal 0 0 1
    outer loop
      vertex 70 38 30
      vertex 58.2964 19.8754 30
      vertex 58.3538 19.5866 30
    endloop
  endfacet
  facet normal 0 0 1
    outer loop
      vertex 70 38 30
      vertex 58.2165 20.1588 30
      vertex 58.2964 19.8754 30
    endloop
  endfacet
  facet normal 0 0 1
    outer loop
      vertex 70 38 30
      vertex 58.1145 20.4351 30
      vertex 58.2165 20.1588 30
    endloop
  endfacet
  facet normal 0 0 1
    outer loop
      vertex 70 38 30
      vertex 57.9913 20.7025 30
      vertex 58.1145 20.4351 30
    endloop
  endfacet
  facet normal 0 0 1
    outer loop
      vertex 70 38 30
      vertex 57.8474 20.9594 30
      vertex 57.9913 20.7025 30
    endloop
  endfacet
  facet normal 0 0 1
    outer loop
      vertex 70 38 30
      vertex 57.6838 21.2042 30
      vertex 57.8474 20.9594 30
    endloop
  endfacet
  facet normal 0 0 1
    outer loop
      vertex 70 38 30
      vertex 57.5015 21.4354 30
      vertex 57.6838 21.2042 30
    endloop
  endfacet
  facet normal 0 0 1
    outer loop
      vertex 70 38 30
      vertex 57.3017 21.6516 30
      vertex 57.5015 21.4354 30
    endloop
  endfacet
  facet normal 0 0 1
    outer loop
      vertex 70 38 30
      vertex 57.0854 21.8515 30
      vertex 57.3017 21.6516 30
    endloop
  endfacet
  facet normal 0 0 1
    outer loop
      vertex 70 38 30
      vertex 56.8542 22.0338 30
      vertex 57.0854 21.8515 30
    endloop
  endfacet
  facet normal 0 0 1
    outer loop
      vertex 70 38 30
      vertex 56.6094 22.1974 30
      vertex 56.8542 22.0338 30
    endloop
  endfacet
  facet normal 0 0 1
    outer loop
      vertex 70 38 30
      vertex 56.3525 22.3413 30
      vertex 56.6094 22.1974 30
    endloop
  endfacet
  facet normal 0 0 1
    outer loop
      vertex 70 38 30
      vertex 56.0851 22.4645 30
      vertex 56.3525 22.3413 30
    endloop
  endfacet
  facet normal 0 0 1
    outer loop
      vertex 70 38 30
      vertex 55.8088 22.5665 30
      vertex 56.0851 22.4645 30
    endloop
  endfacet
  facet normal 0 0 1
    outer loop
      vertex 70 38 30
      vertex 55.5254 22.6464 30
      vertex 55.8088 22.5665 30
    endloop
  endfacet
  facet normal 0 0 1
    outer loop
      vertex 70 38 30
      vertex 55.2366 22.7038 30
      vertex 55.5254 22.6464 30
    endloop
  endfacet
  facet normal 0 0 1
    outer loop
      vertex 70 38 30
      vertex 54.9442 22.7384 30
      vertex 55.2366 22.7038 30
    endloop
  endfacet
  facet normal 0 0 1
    outer loop
      vertex 70 38 30
      vertex 54.65 22.75 30
      vertex 54.9442 22.7384 30
    endloop
  endfacet
  facet normal 0 0 1
    outer loop
      vertex 70 38 30
      vertex 54.3558 22.7384 30
      vertex 54.65 22.75 30
    endloop
  endfacet
  facet normal 0 0 1
    outer loop
      vertex 70 38 30
      vertex 54.0634 22.7038 30
      vertex 54.3558 22.7384 30
    endloop
  endfacet
  facet normal 0 0 1
    outer loop
      vertex 70 38 30
      vertex 53.7746 22.6464 30
      vertex 54.0634 22.7038 30
    endloop
  endfacet
  facet normal 0 0 1
    outer loop
      vertex 70 38 30
      vertex 53.4912 22.5665 30
      vertex 53.7746 22.6464 30
    endloop
  endfacet
  facet normal 0 0 1
    outer loop
      vertex 70 38 30
      vertex 53.2149 22.4645 30
      vertex 53.4912 22.5665 30
    endloop
  endfacet
  facet normal 0 0 1
    outer loop
      vertex 70 38 30
      vertex 52.9475 22.3413 30
      vertex 53.2149 22.4645 30
    endloop
  endfacet
  facet normal -0 0 1
    outer loop
      vertex 0 38 30
      vertex 52.9475 22.3413 30
      vertex 70 38 30
    endloop
  endfacet
  facet normal 0 0 1
    outer loop
      vertex 52.9475 22.3413 30
      vertex 0 38 30
      vertex 52.6906 22.1974 30
    endloop
  endfacet
  facet normal 0 0 1
    outer loop
      vertex 52.6906 22.1974 30
      vertex 0 38 30
      vertex 52.4458 22.0338 30
    endloop
  endfacet
  facet normal 0 0 1
    outer loop
      vertex 50.9116 19.2942 30
      vertex 0 38 30
      vertex 50.9 19 30
    endloop
  endfacet
  facet normal 0 0 1
    outer loop
      vertex 50.9462 19.5866 30
      vertex 0 38 30
      vertex 50.9116 19.2942 30
    endloop
  endfacet
  facet normal 0 0 1
    outer loop
      vertex 51.0036 19.8754 30
      vertex 0 38 30
      vertex 50.9462 19.5866 30
    endloop
  endfacet
  facet normal 0 0 1
    outer loop
      vertex 51.0835 20.1588 30
      vertex 0 38 30
      vertex 51.0036 19.8754 30
    endloop
  endfacet
  facet normal 0 0 1
    outer loop
      vertex 51.1855 20.4351 30
      vertex 0 38 30
      vertex 51.0835 20.1588 30
    endloop
  endfacet
  facet normal 0 0 1
    outer loop
      vertex 51.3087 20.7025 30
      vertex 0 38 30
      vertex 51.1855 20.4351 30
    endloop
  endfacet
  facet normal 0 0 1
    outer loop
      vertex 51.4526 20.9594 30
      vertex 0 38 30
      vertex 51.3087 20.7025 30
    endloop
  endfacet
  facet normal 0 0 1
    outer loop
      vertex 51.6162 21.2042 30
      vertex 0 38 30
      vertex 51.4526 20.9594 30
    endloop
  endfacet
  facet normal 0 0 1
    outer loop
      vertex 51.7985 21.4354 30
      vertex 0 38 30
      vertex 51.6162 21.2042 30
    endloop
  endfacet
  facet normal 0 0 1
    outer loop
      vertex 51.9983 21.6516 30
      vertex 0 38 30
      vertex 51.7985 21.4354 30
    endloop
  endfacet
  facet normal 0 0 1
    outer loop
      vertex 52.2146 21.8515 30
      vertex 0 38 30
      vertex 51.9983 21.6516 30
    endloop
  endfacet
  facet normal 0 0 1
    outer loop
      vertex 52.4458 22.0338 30
      vertex 0 38 30
      vertex 52.2146 21.8515 30
    endloop
  endfacet
  facet normal -0 0 1
    outer loop
      vertex 58.3884 18.7058 30
      vertex 70 0 30
      vertex 58.4 19 30
    endloop
  endfacet
  facet normal -0 0 1
    outer loop
      vertex 58.3538 18.4134 30
      vertex 70 0 30
      vertex 58.3884 18.7058 30
    endloop
  endfacet
  facet normal -0 0 1
    outer loop
      vertex 58.2964 18.1246 30
      vertex 70 0 30
      vertex 58.3538 18.4134 30
    endloop
  endfacet
  facet normal -0 0 1
    outer loop
      vertex 58.2165 17.8412 30
      vertex 70 0 30
      vertex 58.2964 18.1246 30
    endloop
  endfacet
  facet normal -0 0 1
    outer loop
      vertex 58.1145 17.5649 30
      vertex 70 0 30
      vertex 58.2165 17.8412 30
    endloop
  endfacet
  facet normal -0 0 1
    outer loop
      vertex 57.9913 17.2975 30
      vertex 70 0 30
      vertex 58.1145 17.5649 30
    endloop
  endfacet
  facet normal -0 0 1
    outer loop
      vertex 57.8474 17.0406 30
      vertex 70 0 30
      vertex 57.9913 17.2975 30
    endloop
  endfacet
  facet normal -0 0 1
    outer loop
      vertex 57.6838 16.7958 30
      vertex 70 0 30
      vertex 57.8474 17.0406 30
    endloop
  endfacet
  facet normal -0 0 1
    outer loop
      vertex 57.5015 16.5646 30
      vertex 70 0 30
      vertex 57.6838 16.7958 30
    endloop
  endfacet
  facet normal -0 0 1
    outer loop
      vertex 57.3017 16.3483 30
      vertex 70 0 30
      vertex 57.5015 16.5646 30
    endloop
  endfacet
  facet normal -0 0 1
    outer loop
      vertex 57.0854 16.1485 30
      vertex 70 0 30
      vertex 57.3017 16.3483 30
    endloop
  endfacet
  facet normal -0 0 1
    outer loop
      vertex 56.8542 15.9662 30
      vertex 70 0 30
      vertex 57.0854 16.1485 30
    endloop
  endfacet
  facet normal -0 0 1
    outer loop
      vertex 56.6094 15.8026 30
      vertex 70 0 30
      vertex 56.8542 15.9662 30
    endloop
  endfacet
  facet normal -0 0 1
    outer loop
      vertex 56.3525 15.6587 30
      vertex 70 0 30
      vertex 56.6094 15.8026 30
    endloop
  endfacet
  facet normal -0 0 1
    outer loop
      vertex 56.0851 15.5355 30
      vertex 70 0 30
      vertex 56.3525 15.6587 30
    endloop
  endfacet
  facet normal -0 0 1
    outer loop
      vertex 55.8088 15.4335 30
      vertex 70 0 30
      vertex 56.0851 15.5355 30
    endloop
  endfacet
  facet normal -0 0 1
    outer loop
      vertex 55.5254 15.3536 30
      vertex 70 0 30
      vertex 55.8088 15.4335 30
    endloop
  endfacet
  facet normal -0 0 1
    outer loop
      vertex 55.2366 15.2962 30
      vertex 70 0 30
      vertex 55.5254 15.3536 30
    endloop
  endfacet
  facet normal -0 0 1
    outer loop
      vertex 54.9442 15.2616 30
      vertex 70 0 30
      vertex 55.2366 15.2962 30
    endloop
  endfacet
  facet normal -0 0 1
    outer loop
      vertex 54.65 15.25 30
      vertex 70 0 30
      vertex 54.9442 15.2616 30
    endloop
  endfacet
  facet normal 0 0 1
    outer loop
      vertex 54.3558 15.2616 30
      vertex 70 0 30
      vertex 54.65 15.25 30
    endloop
  endfacet
  facet normal 0 0 1
    outer loop
      vertex 54.0634 15.2962 30
      vertex 70 0 30
      vertex 54.3558 15.2616 30
    endloop
  endfacet
  facet normal 0 0 1
    outer loop
      vertex 53.7746 15.3536 30
      vertex 70 0 30
      vertex 54.0634 15.2962 30
    endloop
  endfacet
  facet normal 0 0 1
    outer loop
      vertex 53.4912 15.4335 30
      vertex 70 0 30
      vertex 53.7746 15.3536 30
    endloop
  endfacet
  facet normal 0 0 1
    outer loop
      vertex 53.2149 15.5355 30
      vertex 70 0 30
      vertex 53.4912 15.4335 30
    endloop
  endfacet
  facet normal 0 0 1
    outer loop
      vertex 52.9475 15.6587 30
      vertex 70 0 30
      vertex 53.2149 15.5355 30
    endloop
  endfacet
  facet normal 0 0 1
    outer loop
      vertex 0 0 30
      vertex 52.9475 15.6587 30
      vertex 52.6906 15.8026 30
    endloop
  endfacet
  facet normal 0 0 1
    outer loop
      vertex 0 0 30
      vertex 52.6906 15.8026 30
      vertex 52.4458 15.9662 30
    endloop
  endfacet
  facet normal 0 0 1
    outer loop
      vertex 0 0 30
      vertex 52.4458 15.9662 30
      vertex 52.2146 16.1485 30
    endloop
  endfacet
  facet normal 0 0 1
    outer loop
      vertex 0 0 30
      vertex 50.9 19 30
      vertex 0 38 30
    endloop
  endfacet
  facet normal 0 0 1
    outer loop
      vertex 50.9 19 30
      vertex 0 0 30
      vertex 50.9116 18.7058 30
    endloop
  endfacet
  facet normal 0 0 1
    outer loop
      vertex 50.9116 18.7058 30
      vertex 0 0 30
      vertex 50.9462 18.4134 30
    endloop
  endfacet
  facet normal 0 0 1
    outer loop
      vertex 50.9462 18.4134 30
      vertex 0 0 30
      vertex 51.0036 18.1246 30
    endloop
  endfacet
  facet normal 0 0 1
    outer loop
      vertex 51.0036 18.1246 30
      vertex 0 0 30
      vertex 51.0835 17.8412 30
    endloop
  endfacet
  facet normal 0 0 1
    outer loop
      vertex 51.0835 17.8412 30
      vertex 0 0 30
      vertex 51.1855 17.5649 30
    endloop
  endfacet
  facet normal 0 0 1
    outer loop
      vertex 51.1855 17.5649 30
      vertex 0 0 30
      vertex 51.3087 17.2975 30
    endloop
  endfacet
  facet normal 0 0 1
    outer loop
      vertex 51.3087 17.2975 30
      vertex 0 0 30
      vertex 51.4526 17.0406 30
    endloop
  endfacet
  facet normal 0 0 1
    outer loop
      vertex 51.4526 17.0406 30
      vertex 0 0 30
      vertex 51.6162 16.7958 30
    endloop
  endfacet
  facet normal 0 0 1
    outer loop
      vertex 51.6162 16.7958 30
      vertex 0 0 30
      vertex 51.7985 16.5646 30
    endloop
  endfacet
  facet normal 0 0 1
    outer loop
      vertex 51.7985 16.5646 30
      vertex 0 0 30
      vertex 51.9983 16.3483 30
    endloop
  endfacet
  facet normal 0 0 1
    outer loop
      vertex 51.9983 16.3483 30
      vertex 0 0 30
      vertex 52.2146 16.1485 30
    endloop
  endfacet
  facet normal 0 0 1
    outer loop
      vertex 52.9475 15.6587 30
      vertex 0 0 30
      vertex 70 0 30
    endloop
  endfacet
  facet normal 1 0 0
    outer loop
      vertex 70 38 30
      vertex 70 68 60
      vertex 70 59.0062 60
    endloop
  endfacet
  facet normal 1 0 0
    outer loop
      vertex 70 68 60
      vertex 70 38 30
      vertex 70 68 0
    endloop
  endfacet
  facet normal 1 0 0
    outer loop
      vertex 70 0 0
      vertex 70 38 30
      vertex 70 0 30
    endloop
  endfacet
  facet normal 1 0 0
    outer loop
      vertex 70 38 30
      vertex 70 0 0
      vertex 70 68 0
    endloop
  endfacet
  facet normal 0 1 -0
    outer loop
      vertex 68 38 28
      vertex 2 38 29
      vertex 68 38 29
    endloop
  endfacet
  facet normal 0 1 0
    outer loop
      vertex 2 38 29
      vertex 68 38 28
      vertex 2 38 28
    endloop
  endfacet
  facet normal 0 0 -1
    outer loop
      vertex 70 0 0
      vertex 68 2 0
      vertex 70 68 0
    endloop
  endfacet
  facet normal 0 0 -1
    outer loop
      vertex 70 0 0
      vertex 2 2 0
      vertex 68 2 0
    endloop
  endfacet
  facet normal -0 0 -1
    outer loop
      vertex 2 2 0
      vertex 0 0 0
      vertex 2 66 0
    endloop
  endfacet
  facet normal 0 0 -1
    outer loop
      vertex 0 0 0
      vertex 2 2 0
      vertex 70 0 0
    endloop
  endfacet
  facet normal 0 0 -1
    outer loop
      vertex 68 66 0
      vertex 70 68 0
      vertex 68 2 0
    endloop
  endfacet
  facet normal 0 0 -1
    outer loop
      vertex 2 66 0
      vertex 70 68 0
      vertex 68 66 0
    endloop
  endfacet
  facet normal 0 0 -1
    outer loop
      vertex 2 66 0
      vertex 0 68 0
      vertex 70 68 0
    endloop
  endfacet
  facet normal 0 0 -1
    outer loop
      vertex 0 68 0
      vertex 2 66 0
      vertex 0 0 0
    endloop
  endfacet
  facet normal 0 -1 0
    outer loop
      vertex 0 0 0
      vertex 70 0 30
      vertex 0 0 30
    endloop
  endfacet
  facet normal 0 -1 -0
    outer loop
      vertex 70 0 30
      vertex 0 0 0
      vertex 70 0 0
    endloop
  endfacet
  facet normal 1 0 0
    outer loop
      vertex 2 58.2054 56
      vertex 2 40 30
      vertex 2 42 30
    endloop
  endfacet
  facet normal 1 0 0
    outer loop
      vertex 2 42 30
      vertex 2 66 56
      vertex 2 58.2054 56
    endloop
  endfacet
  facet normal 1 0 0
    outer loop
      vertex 2 42 29
      vertex 2 66 56
      vertex 2 42 30
    endloop
  endfacet
  facet normal 1 0 0
    outer loop
      vertex 2 66 56
      vertex 2 42 29
      vertex 2 66 0
    endloop
  endfacet
  facet normal 1 0 0
    outer loop
      vertex 2 38 28
      vertex 2 42 29
      vertex 2 38 29
    endloop
  endfacet
  facet normal 1 0 0
    outer loop
      vertex 2 42 29
      vertex 2 38 28
      vertex 2 66 0
    endloop
  endfacet
  facet normal 1 0 0
    outer loop
      vertex 2 2 0
      vertex 2 38 28
      vertex 2 2 28
    endloop
  endfacet
  facet normal 1 0 0
    outer loop
      vertex 2 38 28
      vertex 2 2 0
      vertex 2 66 0
    endloop
  endfacet
  facet normal 0 0 -1
    outer loop
      vertex 61.15 12.5 28
      vertex 58.4 19 28
      vertex 61.15 25.5 28
    endloop
  endfacet
  facet normal 0 0 -1
    outer loop
      vertex 61.15 12.5 28
      vertex 58.3884 18.7058 28
      vertex 58.4 19 28
    endloop
  endfacet
  facet normal 0 0 -1
    outer loop
      vertex 61.15 12.5 28
      vertex 58.3538 18.4134 28
      vertex 58.3884 18.7058 28
    endloop
  endfacet
  facet normal 0 0 -1
    outer loop
      vertex 61.15 12.5 28
      vertex 58.2964 18.1246 28
      vertex 58.3538 18.4134 28
    endloop
  endfacet
  facet normal 0 0 -1
    outer loop
      vertex 61.15 12.5 28
      vertex 58.2165 17.8412 28
      vertex 58.2964 18.1246 28
    endloop
  endfacet
  facet normal 0 0 -1
    outer loop
      vertex 61.15 12.5 28
      vertex 58.1145 17.5649 28
      vertex 58.2165 17.8412 28
    endloop
  endfacet
  facet normal 0 0 -1
    outer loop
      vertex 61.15 12.5 28
      vertex 57.9913 17.2975 28
      vertex 58.1145 17.5649 28
    endloop
  endfacet
  facet normal 0 0 -1
    outer loop
      vertex 61.15 12.5 28
      vertex 57.8474 17.0406 28
      vertex 57.9913 17.2975 28
    endloop
  endfacet
  facet normal 0 0 -1
    outer loop
      vertex 61.15 12.5 28
      vertex 57.6838 16.7958 28
      vertex 57.8474 17.0406 28
    endloop
  endfacet
  facet normal 0 0 -1
    outer loop
      vertex 61.15 12.5 28
      vertex 57.5015 16.5646 28
      vertex 57.6838 16.7958 28
    endloop
  endfacet
  facet normal 0 0 -1
    outer loop
      vertex 61.15 12.5 28
      vertex 57.3017 16.3483 28
      vertex 57.5015 16.5646 28
    endloop
  endfacet
  facet normal 0 0 -1
    outer loop
      vertex 61.15 12.5 28
      vertex 57.0854 16.1485 28
      vertex 57.3017 16.3483 28
    endloop
  endfacet
  facet normal 0 0 -1
    outer loop
      vertex 61.15 12.5 28
      vertex 56.8542 15.9662 28
      vertex 57.0854 16.1485 28
    endloop
  endfacet
  facet normal 0 0 -1
    outer loop
      vertex 61.15 12.5 28
      vertex 56.6094 15.8026 28
      vertex 56.8542 15.9662 28
    endloop
  endfacet
  facet normal 0 0 -1
    outer loop
      vertex 61.15 12.5 28
      vertex 56.3525 15.6587 28
      vertex 56.6094 15.8026 28
    endloop
  endfacet
  facet normal 0 0 -1
    outer loop
      vertex 61.15 12.5 28
      vertex 56.0851 15.5355 28
      vertex 56.3525 15.6587 28
    endloop
  endfacet
  facet normal 0 0 -1
    outer loop
      vertex 61.15 12.5 28
      vertex 55.8088 15.4335 28
      vertex 56.0851 15.5355 28
    endloop
  endfacet
  facet normal 0 0 -1
    outer loop
      vertex 61.15 12.5 28
      vertex 55.5254 15.3536 28
      vertex 55.8088 15.4335 28
    endloop
  endfacet
  facet normal 0 0 -1
    outer loop
      vertex 61.15 12.5 28
      vertex 55.2366 15.2962 28
      vertex 55.5254 15.3536 28
    endloop
  endfacet
  facet normal 0 0 -1
    outer loop
      vertex 61.15 12.5 28
      vertex 54.9442 15.2616 28
      vertex 55.2366 15.2962 28
    endloop
  endfacet
  facet normal 0 0 -1
    outer loop
      vertex 61.15 12.5 28
      vertex 54.65 15.25 28
      vertex 54.9442 15.2616 28
    endloop
  endfacet
  facet normal 0 0 -1
    outer loop
      vertex 48.15 12.5 28
      vertex 54.65 15.25 28
      vertex 61.15 12.5 28
    endloop
  endfacet
  facet normal -0 0 -1
    outer loop
      vertex 54.65 15.25 28
      vertex 48.15 12.5 28
      vertex 54.3558 15.2616 28
    endloop
  endfacet
  facet normal -0 0 -1
    outer loop
      vertex 54.3558 15.2616 28
      vertex 48.15 12.5 28
      vertex 54.0634 15.2962 28
    endloop
  endfacet
  facet normal -0 0 -1
    outer loop
      vertex 54.0634 15.2962 28
      vertex 48.15 12.5 28
      vertex 53.7746 15.3536 28
    endloop
  endfacet
  facet normal -0 0 -1
    outer loop
      vertex 53.7746 15.3536 28
      vertex 48.15 12.5 28
      vertex 53.4912 15.4335 28
    endloop
  endfacet
  facet normal -0 0 -1
    outer loop
      vertex 50.9116 18.7058 28
      vertex 48.15 12.5 28
      vertex 50.9 19 28
    endloop
  endfacet
  facet normal -0 0 -1
    outer loop
      vertex 50.9462 18.4134 28
      vertex 48.15 12.5 28
      vertex 50.9116 18.7058 28
    endloop
  endfacet
  facet normal -0 0 -1
    outer loop
      vertex 51.0036 18.1246 28
      vertex 48.15 12.5 28
      vertex 50.9462 18.4134 28
    endloop
  endfacet
  facet normal -0 0 -1
    outer loop
      vertex 51.0835 17.8412 28
      vertex 48.15 12.5 28
      vertex 51.0036 18.1246 28
    endloop
  endfacet
  facet normal -0 0 -1
    outer loop
      vertex 51.1855 17.5649 28
      vertex 48.15 12.5 28
      vertex 51.0835 17.8412 28
    endloop
  endfacet
  facet normal -0 0 -1
    outer loop
      vertex 51.3087 17.2975 28
      vertex 48.15 12.5 28
      vertex 51.1855 17.5649 28
    endloop
  endfacet
  facet normal -0 0 -1
    outer loop
      vertex 51.4526 17.0406 28
      vertex 48.15 12.5 28
      vertex 51.3087 17.2975 28
    endloop
  endfacet
  facet normal -0 0 -1
    outer loop
      vertex 51.6162 16.7958 28
      vertex 48.15 12.5 28
      vertex 51.4526 17.0406 28
    endloop
  endfacet
  facet normal -0 0 -1
    outer loop
      vertex 51.7985 16.5646 28
      vertex 48.15 12.5 28
      vertex 51.6162 16.7958 28
    endloop
  endfacet
  facet normal -0 0 -1
    outer loop
      vertex 51.9983 16.3483 28
      vertex 48.15 12.5 28
      vertex 51.7985 16.5646 28
    endloop
  endfacet
  facet normal -0 0 -1
    outer loop
      vertex 52.2146 16.1485 28
      vertex 48.15 12.5 28
      vertex 51.9983 16.3483 28
    endloop
  endfacet
  facet normal -0 0 -1
    outer loop
      vertex 52.4458 15.9662 28
      vertex 48.15 12.5 28
      vertex 52.2146 16.1485 28
    endloop
  endfacet
  facet normal -0 0 -1
    outer loop
      vertex 52.6906 15.8026 28
      vertex 48.15 12.5 28
      vertex 52.4458 15.9662 28
    endloop
  endfacet
  facet normal -0 0 -1
    outer loop
      vertex 52.9475 15.6587 28
      vertex 48.15 12.5 28
      vertex 52.6906 15.8026 28
    endloop
  endfacet
  facet normal -0 0 -1
    outer loop
      vertex 53.2149 15.5355 28
      vertex 48.15 12.5 28
      vertex 52.9475 15.6587 28
    endloop
  endfacet
  facet normal -0 0 -1
    outer loop
      vertex 53.4912 15.4335 28
      vertex 48.15 12.5 28
      vertex 53.2149 15.5355 28
    endloop
  endfacet
  facet normal 0 0 -1
    outer loop
      vertex 58.3884 19.2942 28
      vertex 61.15 25.5 28
      vertex 58.4 19 28
    endloop
  endfacet
  facet normal 0 0 -1
    outer loop
      vertex 58.3538 19.5866 28
      vertex 61.15 25.5 28
      vertex 58.3884 19.2942 28
    endloop
  endfacet
  facet normal 0 0 -1
    outer loop
      vertex 58.2964 19.8754 28
      vertex 61.15 25.5 28
      vertex 58.3538 19.5866 28
    endloop
  endfacet
  facet normal 0 0 -1
    outer loop
      vertex 58.2165 20.1588 28
      vertex 61.15 25.5 28
      vertex 58.2964 19.8754 28
    endloop
  endfacet
  facet normal 0 0 -1
    outer loop
      vertex 58.1145 20.4351 28
      vertex 61.15 25.5 28
      vertex 58.2165 20.1588 28
    endloop
  endfacet
  facet normal 0 0 -1
    outer loop
      vertex 57.9913 20.7025 28
      vertex 61.15 25.5 28
      vertex 58.1145 20.4351 28
    endloop
  endfacet
  facet normal 0 0 -1
    outer loop
      vertex 57.8474 20.9594 28
      vertex 61.15 25.5 28
      vertex 57.9913 20.7025 28
    endloop
  endfacet
  facet normal 0 0 -1
    outer loop
      vertex 57.6838 21.2042 28
      vertex 61.15 25.5 28
      vertex 57.8474 20.9594 28
    endloop
  endfacet
  facet normal 0 0 -1
    outer loop
      vertex 57.5015 21.4354 28
      vertex 61.15 25.5 28
      vertex 57.6838 21.2042 28
    endloop
  endfacet
  facet normal 0 0 -1
    outer loop
      vertex 57.3017 21.6516 28
      vertex 61.15 25.5 28
      vertex 57.5015 21.4354 28
    endloop
  endfacet
  facet normal 0 0 -1
    outer loop
      vertex 57.0854 21.8515 28
      vertex 61.15 25.5 28
      vertex 57.3017 21.6516 28
    endloop
  endfacet
  facet normal 0 0 -1
    outer loop
      vertex 56.8542 22.0338 28
      vertex 61.15 25.5 28
      vertex 57.0854 21.8515 28
    endloop
  endfacet
  facet normal 0 0 -1
    outer loop
      vertex 56.6094 22.1974 28
      vertex 61.15 25.5 28
      vertex 56.8542 22.0338 28
    endloop
  endfacet
  facet normal 0 0 -1
    outer loop
      vertex 56.3525 22.3413 28
      vertex 61.15 25.5 28
      vertex 56.6094 22.1974 28
    endloop
  endfacet
  facet normal 0 0 -1
    outer loop
      vertex 56.0851 22.4645 28
      vertex 61.15 25.5 28
      vertex 56.3525 22.3413 28
    endloop
  endfacet
  facet normal 0 0 -1
    outer loop
      vertex 55.8088 22.5665 28
      vertex 61.15 25.5 28
      vertex 56.0851 22.4645 28
    endloop
  endfacet
  facet normal 0 0 -1
    outer loop
      vertex 55.5254 22.6464 28
      vertex 61.15 25.5 28
      vertex 55.8088 22.5665 28
    endloop
  endfacet
  facet normal 0 0 -1
    outer loop
      vertex 55.2366 22.7038 28
      vertex 61.15 25.5 28
      vertex 55.5254 22.6464 28
    endloop
  endfacet
  facet normal 0 0 -1
    outer loop
      vertex 54.9442 22.7384 28
      vertex 61.15 25.5 28
      vertex 55.2366 22.7038 28
    endloop
  endfacet
  facet normal 0 0 -1
    outer loop
      vertex 54.65 22.75 28
      vertex 61.15 25.5 28
      vertex 54.9442 22.7384 28
    endloop
  endfacet
  facet normal 0 0 -1
    outer loop
      vertex 48.15 25.5 28
      vertex 54.65 22.75 28
      vertex 54.3558 22.7384 28
    endloop
  endfacet
  facet normal 0 0 -1
    outer loop
      vertex 48.15 25.5 28
      vertex 54.3558 22.7384 28
      vertex 54.0634 22.7038 28
    endloop
  endfacet
  facet normal 0 0 -1
    outer loop
      vertex 48.15 25.5 28
      vertex 54.0634 22.7038 28
      vertex 53.7746 22.6464 28
    endloop
  endfacet
  facet normal 0 0 -1
    outer loop
      vertex 48.15 25.5 28
      vertex 53.7746 22.6464 28
      vertex 53.4912 22.5665 28
    endloop
  endfacet
  facet normal 0 0 -1
    outer loop
      vertex 48.15 25.5 28
      vertex 53.4912 22.5665 28
      vertex 53.2149 22.4645 28
    endloop
  endfacet
  facet normal 0 0 -1
    outer loop
      vertex 48.15 25.5 28
      vertex 50.9 19 28
      vertex 48.15 12.5 28
    endloop
  endfacet
  facet normal 0 0 -1
    outer loop
      vertex 50.9 19 28
      vertex 48.15 25.5 28
      vertex 50.9116 19.2942 28
    endloop
  endfacet
  facet normal 0 0 -1
    outer loop
      vertex 50.9116 19.2942 28
      vertex 48.15 25.5 28
      vertex 50.9462 19.5866 28
    endloop
  endfacet
  facet normal 0 0 -1
    outer loop
      vertex 50.9462 19.5866 28
      vertex 48.15 25.5 28
      vertex 51.0036 19.8754 28
    endloop
  endfacet
  facet normal 0 0 -1
    outer loop
      vertex 51.0036 19.8754 28
      vertex 48.15 25.5 28
      vertex 51.0835 20.1588 28
    endloop
  endfacet
  facet normal 0 0 -1
    outer loop
      vertex 54.65 22.75 28
      vertex 48.15 25.5 28
      vertex 61.15 25.5 28
    endloop
  endfacet
  facet normal 0 0 -1
    outer loop
      vertex 52.9475 22.3413 28
      vertex 48.15 25.5 28
      vertex 53.2149 22.4645 28
    endloop
  endfacet
  facet normal 0 0 -1
    outer loop
      vertex 52.6906 22.1974 28
      vertex 48.15 25.5 28
      vertex 52.9475 22.3413 28
    endloop
  endfacet
  facet normal 0 0 -1
    outer loop
      vertex 52.4458 22.0338 28
      vertex 48.15 25.5 28
      vertex 52.6906 22.1974 28
    endloop
  endfacet
  facet normal 0 0 -1
    outer loop
      vertex 52.2146 21.8515 28
      vertex 48.15 25.5 28
      vertex 52.4458 22.0338 28
    endloop
  endfacet
  facet normal 0 0 -1
    outer loop
      vertex 51.9983 21.6516 28
      vertex 48.15 25.5 28
      vertex 52.2146 21.8515 28
    endloop
  endfacet
  facet normal 0 0 -1
    outer loop
      vertex 51.7985 21.4354 28
      vertex 48.15 25.5 28
      vertex 51.9983 21.6516 28
    endloop
  endfacet
  facet normal 0 0 -1
    outer loop
      vertex 51.6162 21.2042 28
      vertex 48.15 25.5 28
      vertex 51.7985 21.4354 28
    endloop
  endfacet
  facet normal 0 0 -1
    outer loop
      vertex 51.4526 20.9594 28
      vertex 48.15 25.5 28
      vertex 51.6162 21.2042 28
    endloop
  endfacet
  facet normal 0 0 -1
    outer loop
      vertex 51.3087 20.7025 28
      vertex 48.15 25.5 28
      vertex 51.4526 20.9594 28
    endloop
  endfacet
  facet normal 0 0 -1
    outer loop
      vertex 51.1855 20.4351 28
      vertex 48.15 25.5 28
      vertex 51.3087 20.7025 28
    endloop
  endfacet
  facet normal 0 0 -1
    outer loop
      vertex 51.0835 20.1588 28
      vertex 48.15 25.5 28
      vertex 51.1855 20.4351 28
    endloop
  endfacet
  facet normal 0 0 -1
    outer loop
      vertex 62.65 27 28
      vertex 68 2 28
      vertex 62.65 11 28
    endloop
  endfacet
  facet normal 0 0 -1
    outer loop
      vertex 68 2 28
      vertex 46.65 11 28
      vertex 62.65 11 28
    endloop
  endfacet
  facet normal -0 0 -1
    outer loop
      vertex 46.65 11 28
      vertex 2 2 28
      vertex 46.65 27 28
    endloop
  endfacet
  facet normal 0 0 -1
    outer loop
      vertex 2 2 28
      vertex 46.65 11 28
      vertex 68 2 28
    endloop
  endfacet
  facet normal 0 0 -1
    outer loop
      vertex 68 2 28
      vertex 62.65 27 28
      vertex 68 38 28
    endloop
  endfacet
  facet normal 0 0 -1
    outer loop
      vertex 46.65 27 28
      vertex 68 38 28
      vertex 62.65 27 28
    endloop
  endfacet
  facet normal 0 0 -1
    outer loop
      vertex 46.65 27 28
      vertex 2 38 28
      vertex 68 38 28
    endloop
  endfacet
  facet normal 0 0 -1
    outer loop
      vertex 2 38 28
      vertex 46.65 27 28
      vertex 2 2 28
    endloop
  endfacet
  facet normal -1 0 0
    outer loop
      vertex 68 42 29
      vertex 68 66 56
      vertex 68 66 0
    endloop
  endfacet
  facet normal -1 0 0
    outer loop
      vertex 68 42 30
      vertex 68 66 56
      vertex 68 42 29
    endloop
  endfacet
  facet normal -1 0 0
    outer loop
      vertex 68 66 0
      vertex 68 38 28
      vertex 68 42 29
    endloop
  endfacet
  facet normal -1 0 0
    outer loop
      vertex 68 2 0
      vertex 68 38 28
      vertex 68 66 0
    endloop
  endfacet
  facet normal -1 -0 0
    outer loop
      vertex 68 38 28
      vertex 68 2 0
      vertex 68 2 28
    endloop
  endfacet
  facet normal -1 -0 0
    outer loop
      vertex 68 66 56
      vertex 68 42 30
      vertex 68 58.2054 56
    endloop
  endfacet
  facet normal -1 0 0
    outer loop
      vertex 68 58.2054 56
      vertex 68 42 30
      vertex 68 40 30
    endloop
  endfacet
  facet normal -1 -0 0
    outer loop
      vertex 68 42 29
      vertex 68 38 28
      vertex 68 38 29
    endloop
  endfacet
  facet normal 0 1 -0
    outer loop
      vertex 68 2 0
      vertex 2 2 28
      vertex 68 2 28
    endloop
  endfacet
  facet normal 0 1 0
    outer loop
      vertex 2 2 28
      vertex 68 2 0
      vertex 2 2 0
    endloop
  endfacet
  facet normal 0.0393983 -0.999224 0
    outer loop
      vertex 54.3558 22.7384 28
      vertex 54.65 22.75 30
      vertex 54.3558 22.7384 30
    endloop
  endfacet
  facet normal 0.0393983 -0.999224 0
    outer loop
      vertex 54.65 22.75 30
      vertex 54.3558 22.7384 28
      vertex 54.65 22.75 28
    endloop
  endfacet
  facet normal 0.999224 0.0393983 0
    outer loop
      vertex 50.9116 18.7058 30
      vertex 50.9 19 28
      vertex 50.9 19 30
    endloop
  endfacet
  facet normal 0.999224 0.0393983 0
    outer loop
      vertex 50.9 19 28
      vertex 50.9116 18.7058 30
      vertex 50.9116 18.7058 28
    endloop
  endfacet
  facet normal -0.999224 -0.0393983 0
    outer loop
      vertex 58.4 19 28
      vertex 58.3884 19.2942 30
      vertex 58.3884 19.2942 28
    endloop
  endfacet
  facet normal -0.999224 -0.0393983 0
    outer loop
      vertex 58.3884 19.2942 30
      vertex 58.4 19 28
      vertex 58.4 19 30
    endloop
  endfacet
  facet normal 0.734413 -0.678703 0
    outer loop
      vertex 51.7985 21.4354 30
      vertex 51.9983 21.6516 28
      vertex 51.9983 21.6516 30
    endloop
  endfacet
  facet normal 0.734413 -0.678703 0
    outer loop
      vertex 51.9983 21.6516 28
      vertex 51.7985 21.4354 30
      vertex 51.7985 21.4354 28
    endloop
  endfacet
  facet normal 0.678534 0.734569 -0
    outer loop
      vertex 52.2146 16.1485 28
      vertex 51.9983 16.3483 30
      vertex 52.2146 16.1485 30
    endloop
  endfacet
  facet normal 0.678534 0.734569 0
    outer loop
      vertex 51.9983 16.3483 30
      vertex 52.2146 16.1485 28
      vertex 51.9983 16.3483 28
    endloop
  endfacet
  facet normal 0.908238 0.418455 0
    outer loop
      vertex 51.3087 17.2975 30
      vertex 51.1855 17.5649 28
      vertex 51.1855 17.5649 30
    endloop
  endfacet
  facet normal 0.908238 0.418455 0
    outer loop
      vertex 51.1855 17.5649 28
      vertex 51.3087 17.2975 30
      vertex 51.3087 17.2975 28
    endloop
  endfacet
  facet normal 0.418455 -0.908238 0
    outer loop
      vertex 52.9475 22.3413 28
      vertex 53.2149 22.4645 30
      vertex 52.9475 22.3413 30
    endloop
  endfacet
  facet normal 0.418455 -0.908238 0
    outer loop
      vertex 53.2149 22.4645 30
      vertex 52.9475 22.3413 28
      vertex 53.2149 22.4645 28
    endloop
  endfacet
  facet normal 0.938117 -0.346319 0
    outer loop
      vertex 51.0835 20.1588 30
      vertex 51.1855 20.4351 28
      vertex 51.1855 20.4351 30
    endloop
  endfacet
  facet normal 0.938117 -0.346319 0
    outer loop
      vertex 51.1855 20.4351 28
      vertex 51.0835 20.1588 30
      vertex 51.0835 20.1588 28
    endloop
  endfacet
  facet normal 0.831423 -0.55564 0
    outer loop
      vertex 51.4526 20.9594 30
      vertex 51.6162 21.2042 28
      vertex 51.6162 21.2042 30
    endloop
  endfacet
  facet normal 0.831423 -0.55564 0
    outer loop
      vertex 51.6162 21.2042 28
      vertex 51.4526 20.9594 30
      vertex 51.4526 20.9594 28
    endloop
  endfacet
  facet normal -0.117511 -0.993072 0
    outer loop
      vertex 54.9442 22.7384 28
      vertex 55.2366 22.7038 30
      vertex 54.9442 22.7384 30
    endloop
  endfacet
  facet normal -0.117511 -0.993072 -0
    outer loop
      vertex 55.2366 22.7038 30
      vertex 54.9442 22.7384 28
      vertex 55.2366 22.7038 28
    endloop
  endfacet
  facet normal -0.938117 -0.346319 0
    outer loop
      vertex 58.2165 20.1588 28
      vertex 58.1145 20.4351 30
      vertex 58.1145 20.4351 28
    endloop
  endfacet
  facet normal -0.938117 -0.346319 0
    outer loop
      vertex 58.1145 20.4351 30
      vertex 58.2165 20.1588 28
      vertex 58.2165 20.1588 30
    endloop
  endfacet
  facet normal -0.908238 -0.418455 0
    outer loop
      vertex 58.1145 20.4351 28
      vertex 57.9913 20.7025 30
      vertex 57.9913 20.7025 28
    endloop
  endfacet
  facet normal -0.908238 -0.418455 0
    outer loop
      vertex 57.9913 20.7025 30
      vertex 58.1145 20.4351 28
      vertex 58.1145 20.4351 30
    endloop
  endfacet
  facet normal 0.19494 -0.980815 0
    outer loop
      vertex 53.7746 22.6464 28
      vertex 54.0634 22.7038 30
      vertex 53.7746 22.6464 30
    endloop
  endfacet
  facet normal 0.19494 -0.980815 0
    outer loop
      vertex 54.0634 22.7038 30
      vertex 53.7746 22.6464 28
      vertex 54.0634 22.7038 28
    endloop
  endfacet
  facet normal 0.117511 -0.993072 0
    outer loop
      vertex 54.0634 22.7038 28
      vertex 54.3558 22.7384 30
      vertex 54.0634 22.7038 30
    endloop
  endfacet
  facet normal 0.117511 -0.993072 0
    outer loop
      vertex 54.3558 22.7384 30
      vertex 54.0634 22.7038 28
      vertex 54.3558 22.7384 28
    endloop
  endfacet
  facet normal 0.55564 -0.831423 0
    outer loop
      vertex 52.4458 22.0338 28
      vertex 52.6906 22.1974 30
      vertex 52.4458 22.0338 30
    endloop
  endfacet
  facet normal 0.55564 -0.831423 0
    outer loop
      vertex 52.6906 22.1974 30
      vertex 52.4458 22.0338 28
      vertex 52.6906 22.1974 28
    endloop
  endfacet
  facet normal 0.488696 -0.872454 0
    outer loop
      vertex 52.6906 22.1974 28
      vertex 52.9475 22.3413 30
      vertex 52.6906 22.1974 30
    endloop
  endfacet
  facet normal 0.488696 -0.872454 0
    outer loop
      vertex 52.9475 22.3413 30
      vertex 52.6906 22.1974 28
      vertex 52.9475 22.3413 28
    endloop
  endfacet
  facet normal 0.980815 -0.19494 0
    outer loop
      vertex 50.9462 19.5866 30
      vertex 51.0036 19.8754 28
      vertex 51.0036 19.8754 30
    endloop
  endfacet
  facet normal 0.980815 -0.19494 0
    outer loop
      vertex 51.0036 19.8754 28
      vertex 50.9462 19.5866 30
      vertex 50.9462 19.5866 28
    endloop
  endfacet
  facet normal 0.962479 -0.271355 0
    outer loop
      vertex 51.0036 19.8754 30
      vertex 51.0835 20.1588 28
      vertex 51.0835 20.1588 30
    endloop
  endfacet
  facet normal 0.962479 -0.271355 0
    outer loop
      vertex 51.0835 20.1588 28
      vertex 51.0036 19.8754 30
      vertex 51.0036 19.8754 28
    endloop
  endfacet
  facet normal 0.993072 -0.117511 0
    outer loop
      vertex 50.9116 19.2942 30
      vertex 50.9462 19.5866 28
      vertex 50.9462 19.5866 30
    endloop
  endfacet
  facet normal 0.993072 -0.117511 0
    outer loop
      vertex 50.9462 19.5866 28
      vertex 50.9116 19.2942 30
      vertex 50.9116 19.2942 28
    endloop
  endfacet
  facet normal 0.785256 -0.619171 0
    outer loop
      vertex 51.6162 21.2042 30
      vertex 51.7985 21.4354 28
      vertex 51.7985 21.4354 30
    endloop
  endfacet
  facet normal 0.785256 -0.619171 0
    outer loop
      vertex 51.7985 21.4354 28
      vertex 51.6162 21.2042 30
      vertex 51.6162 21.2042 28
    endloop
  endfacet
  facet normal 0.117511 0.993072 -0
    outer loop
      vertex 54.3558 15.2616 28
      vertex 54.0634 15.2962 30
      vertex 54.3558 15.2616 30
    endloop
  endfacet
  facet normal 0.117511 0.993072 0
    outer loop
      vertex 54.0634 15.2962 30
      vertex 54.3558 15.2616 28
      vertex 54.0634 15.2962 28
    endloop
  endfacet
  facet normal 0.488696 0.872454 -0
    outer loop
      vertex 52.9475 15.6587 28
      vertex 52.6906 15.8026 30
      vertex 52.9475 15.6587 30
    endloop
  endfacet
  facet normal 0.488696 0.872454 0
    outer loop
      vertex 52.6906 15.8026 30
      vertex 52.9475 15.6587 28
      vertex 52.6906 15.8026 28
    endloop
  endfacet
  facet normal 0.619171 0.785256 -0
    outer loop
      vertex 52.4458 15.9662 28
      vertex 52.2146 16.1485 30
      vertex 52.4458 15.9662 30
    endloop
  endfacet
  facet normal 0.619171 0.785256 0
    outer loop
      vertex 52.2146 16.1485 30
      vertex 52.4458 15.9662 28
      vertex 52.2146 16.1485 28
    endloop
  endfacet
  facet normal 0.418455 0.908238 -0
    outer loop
      vertex 53.2149 15.5355 28
      vertex 52.9475 15.6587 30
      vertex 53.2149 15.5355 30
    endloop
  endfacet
  facet normal 0.418455 0.908238 0
    outer loop
      vertex 52.9475 15.6587 30
      vertex 53.2149 15.5355 28
      vertex 52.9475 15.6587 28
    endloop
  endfacet
  facet normal 0.271355 0.962479 -0
    outer loop
      vertex 53.7746 15.3536 28
      vertex 53.4912 15.4335 30
      vertex 53.7746 15.3536 30
    endloop
  endfacet
  facet normal 0.271355 0.962479 0
    outer loop
      vertex 53.4912 15.4335 30
      vertex 53.7746 15.3536 28
      vertex 53.4912 15.4335 28
    endloop
  endfacet
  facet normal 0.0393983 0.999224 -0
    outer loop
      vertex 54.65 15.25 28
      vertex 54.3558 15.2616 30
      vertex 54.65 15.25 30
    endloop
  endfacet
  facet normal 0.0393983 0.999224 0
    outer loop
      vertex 54.3558 15.2616 30
      vertex 54.65 15.25 28
      vertex 54.3558 15.2616 28
    endloop
  endfacet
  facet normal 0.785256 0.619171 0
    outer loop
      vertex 51.7985 16.5646 30
      vertex 51.6162 16.7958 28
      vertex 51.6162 16.7958 30
    endloop
  endfacet
  facet normal 0.785256 0.619171 0
    outer loop
      vertex 51.6162 16.7958 28
      vertex 51.7985 16.5646 30
      vertex 51.7985 16.5646 28
    endloop
  endfacet
  facet normal 0.872454 0.488696 0
    outer loop
      vertex 51.4526 17.0406 30
      vertex 51.3087 17.2975 28
      vertex 51.3087 17.2975 30
    endloop
  endfacet
  facet normal 0.872454 0.488696 0
    outer loop
      vertex 51.3087 17.2975 28
      vertex 51.4526 17.0406 30
      vertex 51.4526 17.0406 28
    endloop
  endfacet
  facet normal 0.734569 0.678534 0
    outer loop
      vertex 51.9983 16.3483 30
      vertex 51.7985 16.5646 28
      vertex 51.7985 16.5646 30
    endloop
  endfacet
  facet normal 0.734569 0.678534 0
    outer loop
      vertex 51.7985 16.5646 28
      vertex 51.9983 16.3483 30
      vertex 51.9983 16.3483 28
    endloop
  endfacet
  facet normal 0.993072 0.117511 0
    outer loop
      vertex 50.9462 18.4134 30
      vertex 50.9116 18.7058 28
      vertex 50.9116 18.7058 30
    endloop
  endfacet
  facet normal 0.993072 0.117511 0
    outer loop
      vertex 50.9116 18.7058 28
      vertex 50.9462 18.4134 30
      vertex 50.9462 18.4134 28
    endloop
  endfacet
  facet normal -0.0393983 -0.999224 0
    outer loop
      vertex 54.65 22.75 28
      vertex 54.9442 22.7384 30
      vertex 54.65 22.75 30
    endloop
  endfacet
  facet normal -0.0393983 -0.999224 -0
    outer loop
      vertex 54.9442 22.7384 30
      vertex 54.65 22.75 28
      vertex 54.9442 22.7384 28
    endloop
  endfacet
  facet normal -0.678717 -0.7344 0
    outer loop
      vertex 57.0854 21.8515 28
      vertex 57.3017 21.6516 30
      vertex 57.0854 21.8515 30
    endloop
  endfacet
  facet normal -0.678717 -0.7344 -0
    outer loop
      vertex 57.3017 21.6516 30
      vertex 57.0854 21.8515 28
      vertex 57.3017 21.6516 28
    endloop
  endfacet
  facet normal -0.346319 -0.938117 0
    outer loop
      vertex 55.8088 22.5665 28
      vertex 56.0851 22.4645 30
      vertex 55.8088 22.5665 30
    endloop
  endfacet
  facet normal -0.346319 -0.938117 -0
    outer loop
      vertex 56.0851 22.4645 30
      vertex 55.8088 22.5665 28
      vertex 56.0851 22.4645 28
    endloop
  endfacet
  facet normal 0.346319 -0.938117 0
    outer loop
      vertex 53.2149 22.4645 28
      vertex 53.4912 22.5665 30
      vertex 53.2149 22.4645 30
    endloop
  endfacet
  facet normal 0.346319 -0.938117 0
    outer loop
      vertex 53.4912 22.5665 30
      vertex 53.2149 22.4645 28
      vertex 53.4912 22.5665 28
    endloop
  endfacet
  facet normal 0.271355 -0.962479 0
    outer loop
      vertex 53.4912 22.5665 28
      vertex 53.7746 22.6464 30
      vertex 53.4912 22.5665 30
    endloop
  endfacet
  facet normal 0.271355 -0.962479 0
    outer loop
      vertex 53.7746 22.6464 30
      vertex 53.4912 22.5665 28
      vertex 53.7746 22.6464 28
    endloop
  endfacet
  facet normal 0.619171 -0.785256 0
    outer loop
      vertex 52.2146 21.8515 28
      vertex 52.4458 22.0338 30
      vertex 52.2146 21.8515 30
    endloop
  endfacet
  facet normal 0.619171 -0.785256 0
    outer loop
      vertex 52.4458 22.0338 30
      vertex 52.2146 21.8515 28
      vertex 52.4458 22.0338 28
    endloop
  endfacet
  facet normal 0.678717 -0.7344 0
    outer loop
      vertex 51.9983 21.6516 28
      vertex 52.2146 21.8515 30
      vertex 51.9983 21.6516 30
    endloop
  endfacet
  facet normal 0.678717 -0.7344 0
    outer loop
      vertex 52.2146 21.8515 30
      vertex 51.9983 21.6516 28
      vertex 52.2146 21.8515 28
    endloop
  endfacet
  facet normal 0.999224 -0.0393983 0
    outer loop
      vertex 50.9 19 30
      vertex 50.9116 19.2942 28
      vertex 50.9116 19.2942 30
    endloop
  endfacet
  facet normal 0.999224 -0.0393983 0
    outer loop
      vertex 50.9116 19.2942 28
      vertex 50.9 19 30
      vertex 50.9 19 28
    endloop
  endfacet
  facet normal 0.872454 -0.488696 0
    outer loop
      vertex 51.3087 20.7025 30
      vertex 51.4526 20.9594 28
      vertex 51.4526 20.9594 30
    endloop
  endfacet
  facet normal 0.872454 -0.488696 0
    outer loop
      vertex 51.4526 20.9594 28
      vertex 51.3087 20.7025 30
      vertex 51.3087 20.7025 28
    endloop
  endfacet
  facet normal 0.908238 -0.418455 0
    outer loop
      vertex 51.1855 20.4351 30
      vertex 51.3087 20.7025 28
      vertex 51.3087 20.7025 30
    endloop
  endfacet
  facet normal 0.908238 -0.418455 0
    outer loop
      vertex 51.3087 20.7025 28
      vertex 51.1855 20.4351 30
      vertex 51.1855 20.4351 28
    endloop
  endfacet
  facet normal 0.55564 0.831423 -0
    outer loop
      vertex 52.6906 15.8026 28
      vertex 52.4458 15.9662 30
      vertex 52.6906 15.8026 30
    endloop
  endfacet
  facet normal 0.55564 0.831423 0
    outer loop
      vertex 52.4458 15.9662 30
      vertex 52.6906 15.8026 28
      vertex 52.4458 15.9662 28
    endloop
  endfacet
  facet normal 0.346319 0.938117 -0
    outer loop
      vertex 53.4912 15.4335 28
      vertex 53.2149 15.5355 30
      vertex 53.4912 15.4335 30
    endloop
  endfacet
  facet normal 0.346319 0.938117 0
    outer loop
      vertex 53.2149 15.5355 30
      vertex 53.4912 15.4335 28
      vertex 53.2149 15.5355 28
    endloop
  endfacet
  facet normal 0.19494 0.980815 -0
    outer loop
      vertex 54.0634 15.2962 28
      vertex 53.7746 15.3536 30
      vertex 54.0634 15.2962 30
    endloop
  endfacet
  facet normal 0.19494 0.980815 0
    outer loop
      vertex 53.7746 15.3536 30
      vertex 54.0634 15.2962 28
      vertex 53.7746 15.3536 28
    endloop
  endfacet
  facet normal -0.0393983 0.999224 0
    outer loop
      vertex 54.9442 15.2616 28
      vertex 54.65 15.25 30
      vertex 54.9442 15.2616 30
    endloop
  endfacet
  facet normal -0.0393983 0.999224 0
    outer loop
      vertex 54.65 15.25 30
      vertex 54.9442 15.2616 28
      vertex 54.65 15.25 28
    endloop
  endfacet
  facet normal 0.831423 0.55564 0
    outer loop
      vertex 51.6162 16.7958 30
      vertex 51.4526 17.0406 28
      vertex 51.4526 17.0406 30
    endloop
  endfacet
  facet normal 0.831423 0.55564 0
    outer loop
      vertex 51.4526 17.0406 28
      vertex 51.6162 16.7958 30
      vertex 51.6162 16.7958 28
    endloop
  endfacet
  facet normal 0.962479 0.271355 0
    outer loop
      vertex 51.0835 17.8412 30
      vertex 51.0036 18.1246 28
      vertex 51.0036 18.1246 30
    endloop
  endfacet
  facet normal 0.962479 0.271355 0
    outer loop
      vertex 51.0036 18.1246 28
      vertex 51.0835 17.8412 30
      vertex 51.0835 17.8412 28
    endloop
  endfacet
  facet normal 0.980815 0.19494 0
    outer loop
      vertex 51.0036 18.1246 30
      vertex 50.9462 18.4134 28
      vertex 50.9462 18.4134 30
    endloop
  endfacet
  facet normal 0.980815 0.19494 0
    outer loop
      vertex 50.9462 18.4134 28
      vertex 51.0036 18.1246 30
      vertex 51.0036 18.1246 28
    endloop
  endfacet
  facet normal -0.271355 -0.962479 0
    outer loop
      vertex 55.5254 22.6464 28
      vertex 55.8088 22.5665 30
      vertex 55.5254 22.6464 30
    endloop
  endfacet
  facet normal -0.271355 -0.962479 -0
    outer loop
      vertex 55.8088 22.5665 30
      vertex 55.5254 22.6464 28
      vertex 55.8088 22.5665 28
    endloop
  endfacet
  facet normal -0.418455 -0.908238 0
    outer loop
      vertex 56.0851 22.4645 28
      vertex 56.3525 22.3413 30
      vertex 56.0851 22.4645 30
    endloop
  endfacet
  facet normal -0.418455 -0.908238 -0
    outer loop
      vertex 56.3525 22.3413 30
      vertex 56.0851 22.4645 28
      vertex 56.3525 22.3413 28
    endloop
  endfacet
  facet normal 0.938117 0.346319 0
    outer loop
      vertex 51.1855 17.5649 30
      vertex 51.0835 17.8412 28
      vertex 51.0835 17.8412 30
    endloop
  endfacet
  facet normal 0.938117 0.346319 0
    outer loop
      vertex 51.0835 17.8412 28
      vertex 51.1855 17.5649 30
      vertex 51.1855 17.5649 28
    endloop
  endfacet
  facet normal -0.19494 -0.980815 0
    outer loop
      vertex 55.2366 22.7038 28
      vertex 55.5254 22.6464 30
      vertex 55.2366 22.7038 30
    endloop
  endfacet
  facet normal -0.19494 -0.980815 -0
    outer loop
      vertex 55.5254 22.6464 30
      vertex 55.2366 22.7038 28
      vertex 55.5254 22.6464 28
    endloop
  endfacet
  facet normal -0.619171 -0.785256 0
    outer loop
      vertex 56.8542 22.0338 28
      vertex 57.0854 21.8515 30
      vertex 56.8542 22.0338 30
    endloop
  endfacet
  facet normal -0.619171 -0.785256 -0
    outer loop
      vertex 57.0854 21.8515 30
      vertex 56.8542 22.0338 28
      vertex 57.0854 21.8515 28
    endloop
  endfacet
  facet normal -0.488696 -0.872454 0
    outer loop
      vertex 56.3525 22.3413 28
      vertex 56.6094 22.1974 30
      vertex 56.3525 22.3413 30
    endloop
  endfacet
  facet normal -0.488696 -0.872454 -0
    outer loop
      vertex 56.6094 22.1974 30
      vertex 56.3525 22.3413 28
      vertex 56.6094 22.1974 28
    endloop
  endfacet
  facet normal -0.785256 -0.619171 0
    outer loop
      vertex 57.6838 21.2042 28
      vertex 57.5015 21.4354 30
      vertex 57.5015 21.4354 28
    endloop
  endfacet
  facet normal -0.785256 -0.619171 0
    outer loop
      vertex 57.5015 21.4354 30
      vertex 57.6838 21.2042 28
      vertex 57.6838 21.2042 30
    endloop
  endfacet
  facet normal -0.999224 0.0393983 0
    outer loop
      vertex 58.3884 18.7058 28
      vertex 58.4 19 30
      vertex 58.4 19 28
    endloop
  endfacet
  facet normal -0.999224 0.0393983 0
    outer loop
      vertex 58.4 19 30
      vertex 58.3884 18.7058 28
      vertex 58.3884 18.7058 30
    endloop
  endfacet
  facet normal -0.993072 0.117511 0
    outer loop
      vertex 58.3538 18.4134 28
      vertex 58.3884 18.7058 30
      vertex 58.3884 18.7058 28
    endloop
  endfacet
  facet normal -0.993072 0.117511 0
    outer loop
      vertex 58.3884 18.7058 30
      vertex 58.3538 18.4134 28
      vertex 58.3538 18.4134 30
    endloop
  endfacet
  facet normal -0.938117 0.346319 0
    outer loop
      vertex 58.1145 17.5649 28
      vertex 58.2165 17.8412 30
      vertex 58.2165 17.8412 28
    endloop
  endfacet
  facet normal -0.938117 0.346319 0
    outer loop
      vertex 58.2165 17.8412 30
      vertex 58.1145 17.5649 28
      vertex 58.1145 17.5649 30
    endloop
  endfacet
  facet normal -0.908238 0.418455 0
    outer loop
      vertex 57.9913 17.2975 28
      vertex 58.1145 17.5649 30
      vertex 58.1145 17.5649 28
    endloop
  endfacet
  facet normal -0.908238 0.418455 0
    outer loop
      vertex 58.1145 17.5649 30
      vertex 57.9913 17.2975 28
      vertex 57.9913 17.2975 30
    endloop
  endfacet
  facet normal -0.734569 0.678534 0
    outer loop
      vertex 57.3017 16.3483 28
      vertex 57.5015 16.5646 30
      vertex 57.5015 16.5646 28
    endloop
  endfacet
  facet normal -0.734569 0.678534 0
    outer loop
      vertex 57.5015 16.5646 30
      vertex 57.3017 16.3483 28
      vertex 57.3017 16.3483 30
    endloop
  endfacet
  facet normal -0.418455 0.908238 0
    outer loop
      vertex 56.3525 15.6587 28
      vertex 56.0851 15.5355 30
      vertex 56.3525 15.6587 30
    endloop
  endfacet
  facet normal -0.418455 0.908238 0
    outer loop
      vertex 56.0851 15.5355 30
      vertex 56.3525 15.6587 28
      vertex 56.0851 15.5355 28
    endloop
  endfacet
  facet normal -0.19494 0.980815 0
    outer loop
      vertex 55.5254 15.3536 28
      vertex 55.2366 15.2962 30
      vertex 55.5254 15.3536 30
    endloop
  endfacet
  facet normal -0.19494 0.980815 0
    outer loop
      vertex 55.2366 15.2962 30
      vertex 55.5254 15.3536 28
      vertex 55.2366 15.2962 28
    endloop
  endfacet
  facet normal -0.117511 0.993072 0
    outer loop
      vertex 55.2366 15.2962 28
      vertex 54.9442 15.2616 30
      vertex 55.2366 15.2962 30
    endloop
  endfacet
  facet normal -0.117511 0.993072 0
    outer loop
      vertex 54.9442 15.2616 30
      vertex 55.2366 15.2962 28
      vertex 54.9442 15.2616 28
    endloop
  endfacet
  facet normal -0.980815 -0.19494 0
    outer loop
      vertex 58.3538 19.5866 28
      vertex 58.2964 19.8754 30
      vertex 58.2964 19.8754 28
    endloop
  endfacet
  facet normal -0.980815 -0.19494 0
    outer loop
      vertex 58.2964 19.8754 30
      vertex 58.3538 19.5866 28
      vertex 58.3538 19.5866 30
    endloop
  endfacet
  facet normal -0.993072 -0.117511 0
    outer loop
      vertex 58.3884 19.2942 28
      vertex 58.3538 19.5866 30
      vertex 58.3538 19.5866 28
    endloop
  endfacet
  facet normal -0.993072 -0.117511 0
    outer loop
      vertex 58.3538 19.5866 30
      vertex 58.3884 19.2942 28
      vertex 58.3884 19.2942 30
    endloop
  endfacet
  facet normal -0.55564 -0.831423 0
    outer loop
      vertex 56.6094 22.1974 28
      vertex 56.8542 22.0338 30
      vertex 56.6094 22.1974 30
    endloop
  endfacet
  facet normal -0.55564 -0.831423 -0
    outer loop
      vertex 56.8542 22.0338 30
      vertex 56.6094 22.1974 28
      vertex 56.8542 22.0338 28
    endloop
  endfacet
  facet normal -0.734413 -0.678703 0
    outer loop
      vertex 57.5015 21.4354 28
      vertex 57.3017 21.6516 30
      vertex 57.3017 21.6516 28
    endloop
  endfacet
  facet normal -0.734413 -0.678703 0
    outer loop
      vertex 57.3017 21.6516 30
      vertex 57.5015 21.4354 28
      vertex 57.5015 21.4354 30
    endloop
  endfacet
  facet normal -0.962479 0.271355 0
    outer loop
      vertex 58.2165 17.8412 28
      vertex 58.2964 18.1246 30
      vertex 58.2964 18.1246 28
    endloop
  endfacet
  facet normal -0.962479 0.271355 0
    outer loop
      vertex 58.2964 18.1246 30
      vertex 58.2165 17.8412 28
      vertex 58.2165 17.8412 30
    endloop
  endfacet
  facet normal -0.488696 0.872454 0
    outer loop
      vertex 56.6094 15.8026 28
      vertex 56.3525 15.6587 30
      vertex 56.6094 15.8026 30
    endloop
  endfacet
  facet normal -0.488696 0.872454 0
    outer loop
      vertex 56.3525 15.6587 30
      vertex 56.6094 15.8026 28
      vertex 56.3525 15.6587 28
    endloop
  endfacet
  facet normal -0.346319 0.938117 0
    outer loop
      vertex 56.0851 15.5355 28
      vertex 55.8088 15.4335 30
      vertex 56.0851 15.5355 30
    endloop
  endfacet
  facet normal -0.346319 0.938117 0
    outer loop
      vertex 55.8088 15.4335 30
      vertex 56.0851 15.5355 28
      vertex 55.8088 15.4335 28
    endloop
  endfacet
  facet normal -0.271355 0.962479 0
    outer loop
      vertex 55.8088 15.4335 28
      vertex 55.5254 15.3536 30
      vertex 55.8088 15.4335 30
    endloop
  endfacet
  facet normal -0.271355 0.962479 0
    outer loop
      vertex 55.5254 15.3536 30
      vertex 55.8088 15.4335 28
      vertex 55.5254 15.3536 28
    endloop
  endfacet
  facet normal -0.962479 -0.271355 0
    outer loop
      vertex 58.2964 19.8754 28
      vertex 58.2165 20.1588 30
      vertex 58.2165 20.1588 28
    endloop
  endfacet
  facet normal -0.962479 -0.271355 0
    outer loop
      vertex 58.2165 20.1588 30
      vertex 58.2964 19.8754 28
      vertex 58.2964 19.8754 30
    endloop
  endfacet
  facet normal -0.831423 -0.55564 0
    outer loop
      vertex 57.8474 20.9594 28
      vertex 57.6838 21.2042 30
      vertex 57.6838 21.2042 28
    endloop
  endfacet
  facet normal -0.831423 -0.55564 0
    outer loop
      vertex 57.6838 21.2042 30
      vertex 57.8474 20.9594 28
      vertex 57.8474 20.9594 30
    endloop
  endfacet
  facet normal -0.872454 -0.488696 0
    outer loop
      vertex 57.9913 20.7025 28
      vertex 57.8474 20.9594 30
      vertex 57.8474 20.9594 28
    endloop
  endfacet
  facet normal -0.872454 -0.488696 0
    outer loop
      vertex 57.8474 20.9594 30
      vertex 57.9913 20.7025 28
      vertex 57.9913 20.7025 30
    endloop
  endfacet
  facet normal -0.980815 0.19494 0
    outer loop
      vertex 58.2964 18.1246 28
      vertex 58.3538 18.4134 30
      vertex 58.3538 18.4134 28
    endloop
  endfacet
  facet normal -0.980815 0.19494 0
    outer loop
      vertex 58.3538 18.4134 30
      vertex 58.2964 18.1246 28
      vertex 58.2964 18.1246 30
    endloop
  endfacet
  facet normal -0.785256 0.619171 0
    outer loop
      vertex 57.5015 16.5646 28
      vertex 57.6838 16.7958 30
      vertex 57.6838 16.7958 28
    endloop
  endfacet
  facet normal -0.785256 0.619171 0
    outer loop
      vertex 57.6838 16.7958 30
      vertex 57.5015 16.5646 28
      vertex 57.5015 16.5646 30
    endloop
  endfacet
  facet normal -0.55564 0.831423 0
    outer loop
      vertex 56.8542 15.9662 28
      vertex 56.6094 15.8026 30
      vertex 56.8542 15.9662 30
    endloop
  endfacet
  facet normal -0.55564 0.831423 0
    outer loop
      vertex 56.6094 15.8026 30
      vertex 56.8542 15.9662 28
      vertex 56.6094 15.8026 28
    endloop
  endfacet
  facet normal -0.678534 0.734569 0
    outer loop
      vertex 57.3017 16.3483 28
      vertex 57.0854 16.1485 30
      vertex 57.3017 16.3483 30
    endloop
  endfacet
  facet normal -0.678534 0.734569 0
    outer loop
      vertex 57.0854 16.1485 30
      vertex 57.3017 16.3483 28
      vertex 57.0854 16.1485 28
    endloop
  endfacet
  facet normal -0.619171 0.785256 0
    outer loop
      vertex 57.0854 16.1485 28
      vertex 56.8542 15.9662 30
      vertex 57.0854 16.1485 30
    endloop
  endfacet
  facet normal -0.619171 0.785256 0
    outer loop
      vertex 56.8542 15.9662 30
      vertex 57.0854 16.1485 28
      vertex 56.8542 15.9662 28
    endloop
  endfacet
  facet normal -0.872454 0.488696 0
    outer loop
      vertex 57.8474 17.0406 28
      vertex 57.9913 17.2975 30
      vertex 57.9913 17.2975 28
    endloop
  endfacet
  facet normal -0.872454 0.488696 0
    outer loop
      vertex 57.9913 17.2975 30
      vertex 57.8474 17.0406 28
      vertex 57.8474 17.0406 30
    endloop
  endfacet
  facet normal -0.831423 0.55564 0
    outer loop
      vertex 57.6838 16.7958 28
      vertex 57.8474 17.0406 30
      vertex 57.8474 17.0406 28
    endloop
  endfacet
  facet normal -0.831423 0.55564 0
    outer loop
      vertex 57.8474 17.0406 30
      vertex 57.6838 16.7958 28
      vertex 57.6838 16.7958 30
    endloop
  endfacet
  facet normal -1 0 0
    outer loop
      vertex 46.65 11 24
      vertex 46.65 27 28
      vertex 46.65 27 24
    endloop
  endfacet
  facet normal -1 -0 0
    outer loop
      vertex 46.65 27 28
      vertex 46.65 11 24
      vertex 46.65 11 28
    endloop
  endfacet
  facet normal 1 -0 0
    outer loop
      vertex 62.65 11 28
      vertex 62.65 27 24
      vertex 62.65 27 28
    endloop
  endfacet
  facet normal 1 0 0
    outer loop
      vertex 62.65 27 24
      vertex 62.65 11 28
      vertex 62.65 11 24
    endloop
  endfacet
  facet normal 0 0 -1
    outer loop
      vertex 62.65 11 24
      vertex 61.15 12.5 24
      vertex 62.65 27 24
    endloop
  endfacet
  facet normal 0 0 -1
    outer loop
      vertex 62.65 11 24
      vertex 48.15 12.5 24
      vertex 61.15 12.5 24
    endloop
  endfacet
  facet normal -0 0 -1
    outer loop
      vertex 48.15 12.5 24
      vertex 46.65 11 24
      vertex 48.15 25.5 24
    endloop
  endfacet
  facet normal 0 0 -1
    outer loop
      vertex 46.65 11 24
      vertex 48.15 12.5 24
      vertex 62.65 11 24
    endloop
  endfacet
  facet normal 0 0 -1
    outer loop
      vertex 61.15 25.5 24
      vertex 62.65 27 24
      vertex 61.15 12.5 24
    endloop
  endfacet
  facet normal 0 0 -1
    outer loop
      vertex 48.15 25.5 24
      vertex 62.65 27 24
      vertex 61.15 25.5 24
    endloop
  endfacet
  facet normal 0 0 -1
    outer loop
      vertex 48.15 25.5 24
      vertex 46.65 27 24
      vertex 62.65 27 24
    endloop
  endfacet
  facet normal 0 0 -1
    outer loop
      vertex 46.65 27 24
      vertex 48.15 25.5 24
      vertex 46.65 11 24
    endloop
  endfacet
  facet normal 0 -1 0
    outer loop
      vertex 46.65 11 24
      vertex 62.65 11 28
      vertex 46.65 11 28
    endloop
  endfacet
  facet normal 0 -1 -0
    outer loop
      vertex 62.65 11 28
      vertex 46.65 11 24
      vertex 62.65 11 24
    endloop
  endfacet
  facet normal 0 1 -0
    outer loop
      vertex 62.65 27 24
      vertex 46.65 27 28
      vertex 62.65 27 28
    endloop
  endfacet
  facet normal 0 1 0
    outer loop
      vertex 46.65 27 28
      vertex 62.65 27 24
      vertex 46.65 27 24
    endloop
  endfacet
  facet normal 1 -0 0
    outer loop
      vertex 48.15 12.5 28
      vertex 48.15 25.5 24
      vertex 48.15 25.5 28
    endloop
  endfacet
  facet normal 1 0 0
    outer loop
      vertex 48.15 25.5 24
      vertex 48.15 12.5 28
      vertex 48.15 12.5 24
    endloop
  endfacet
  facet normal -1 0 0
    outer loop
      vertex 61.15 12.5 24
      vertex 61.15 25.5 28
      vertex 61.15 25.5 24
    endloop
  endfacet
  facet normal -1 -0 0
    outer loop
      vertex 61.15 25.5 28
      vertex 61.15 12.5 24
      vertex 61.15 12.5 28
    endloop
  endfacet
  facet normal 0 1 -0
    outer loop
      vertex 61.15 12.5 24
      vertex 48.15 12.5 28
      vertex 61.15 12.5 28
    endloop
  endfacet
  facet normal 0 1 0
    outer loop
      vertex 48.15 12.5 28
      vertex 61.15 12.5 24
      vertex 48.15 12.5 24
    endloop
  endfacet
  facet normal 0 -1 0
    outer loop
      vertex 48.15 25.5 24
      vertex 61.15 25.5 28
      vertex 48.15 25.5 28
    endloop
  endfacet
  facet normal 0 -1 -0
    outer loop
      vertex 61.15 25.5 28
      vertex 48.15 25.5 24
      vertex 61.15 25.5 24
    endloop
  endfacet
  facet normal 0 0 -1
    outer loop
      vertex 2 58.2054 56
      vertex 68 66 56
      vertex 68 58.2054 56
    endloop
  endfacet
  facet normal -0 0 -1
    outer loop
      vertex 68 66 56
      vertex 2 58.2054 56
      vertex 2 66 56
    endloop
  endfacet
  facet normal 0 -1 0
    outer loop
      vertex 39.5 66 42.0996
      vertex 2 66 56
      vertex 9 66 42.0996
    endloop
  endfacet
  facet normal 0 -1 0
    outer loop
      vertex 2 66 56
      vertex 9 66 41.4252
      vertex 9 66 42.0996
    endloop
  endfacet
  facet normal 0 -1 -0
    outer loop
      vertex 9 66 41.4252
      vertex 2 66 0
      vertex 39.5 66 41.4252
    endloop
  endfacet
  facet normal 0 -1 0
    outer loop
      vertex 2 66 0
      vertex 9 66 41.4252
      vertex 2 66 56
    endloop
  endfacet
  facet normal 0 -1 0
    outer loop
      vertex 2 66 56
      vertex 39.5 66 42.0996
      vertex 68 66 56
    endloop
  endfacet
  facet normal 0 -1 0
    outer loop
      vertex 39.5 66 41.4252
      vertex 68 66 56
      vertex 39.5 66 42.0996
    endloop
  endfacet
  facet normal 0 -1 0
    outer loop
      vertex 68 66 0
      vertex 39.5 66 41.4252
      vertex 2 66 0
    endloop
  endfacet
  facet normal 0 -1 0
    outer loop
      vertex 39.5 66 41.4252
      vertex 68 66 0
      vertex 68 66 56
    endloop
  endfacet
  facet normal -0 0 1
    outer loop
      vertex 2 42 30
      vertex 68 40 30
      vertex 68 42 30
    endloop
  endfacet
  facet normal 0 0 1
    outer loop
      vertex 68 40 30
      vertex 2 42 30
      vertex 2 40 30
    endloop
  endfacet
  facet normal 0 0.819155 -0.573572
    outer loop
      vertex 68 58.2054 56
      vertex 39.5 54.2387 50.3349
      vertex 2 58.2054 56
    endloop
  endfacet
  facet normal 1.93006e-06 0.819151 -0.573579
    outer loop
      vertex 68 58.2054 56
      vertex 39.5 45.9218 38.4572
      vertex 39.5 54.2387 50.3349
    endloop
  endfacet
  facet normal 0 0.819152 -0.573577
    outer loop
      vertex 2 40 30
      vertex 39.5 45.9218 38.4572
      vertex 68 40 30
    endloop
  endfacet
  facet normal 1.0073e-07 0.819152 -0.573577
    outer loop
      vertex 68 40 30
      vertex 39.5 45.9218 38.4572
      vertex 68 58.2054 56
    endloop
  endfacet
  facet normal 0 0.819155 -0.573572
    outer loop
      vertex 9 54.2387 50.3349
      vertex 2 58.2054 56
      vertex 39.5 54.2387 50.3349
    endloop
  endfacet
  facet normal -7.85812e-06 0.819151 -0.573579
    outer loop
      vertex 9 45.9218 38.4572
      vertex 2 58.2054 56
      vertex 9 54.2387 50.3349
    endloop
  endfacet
  facet normal -4.10116e-07 0.819152 -0.573577
    outer loop
      vertex 9 45.9218 38.4572
      vertex 2 40 30
      vertex 2 58.2054 56
    endloop
  endfacet
  facet normal 0 0.819152 -0.573577
    outer loop
      vertex 39.5 45.9218 38.4572
      vertex 2 40 30
      vertex 9 45.9218 38.4572
    endloop
  endfacet
  facet normal -0 0 1
    outer loop
      vertex 0 68 60
      vertex 70 59.0062 60
      vertex 70 68 60
    endloop
  endfacet
  facet normal 0 0 1
    outer loop
      vertex 70 59.0062 60
      vertex 0 68 60
      vertex 0 59.0062 60
    endloop
  endfacet
  facet normal 0 1 -0
    outer loop
      vertex 70 68 0
      vertex 0 68 60
      vertex 70 68 60
    endloop
  endfacet
  facet normal 0 1 0
    outer loop
      vertex 0 68 60
      vertex 70 68 0
      vertex 0 68 0
    endloop
  endfacet
  facet normal 0 -0.819156 0.573571
    outer loop
      vertex 39.5 52.8967 51.2746
      vertex 0 59.0062 60
      vertex 9 52.8967 51.2746
    endloop
  endfacet
  facet normal 1.12729e-05 -0.819151 0.573579
    outer loop
      vertex 0 59.0062 60
      vertex 9 44.5798 39.3969
      vertex 9 52.8967 51.2746
    endloop
  endfacet
  facet normal 0 -0.819151 0.573578
    outer loop
      vertex 9 44.5798 39.3969
      vertex 0 38 30
      vertex 39.5 44.5798 39.3969
    endloop
  endfacet
  facet normal 2.54611e-06 -0.819152 0.573576
    outer loop
      vertex 0 38 30
      vertex 9 44.5798 39.3969
      vertex 0 59.0062 60
    endloop
  endfacet
  facet normal 0 -0.819156 0.573571
    outer loop
      vertex 0 59.0062 60
      vertex 39.5 52.8967 51.2746
      vertex 70 59.0062 60
    endloop
  endfacet
  facet normal -3.32642e-06 -0.819151 0.573579
    outer loop
      vertex 39.5 44.5798 39.3969
      vertex 70 59.0062 60
      vertex 39.5 52.8967 51.2746
    endloop
  endfacet
  facet normal -7.5131e-07 -0.819152 0.573576
    outer loop
      vertex 39.5 44.5798 39.3969
      vertex 70 38 30
      vertex 70 59.0062 60
    endloop
  endfacet
  facet normal 0 -0.819151 0.573578
    outer loop
      vertex 70 38 30
      vertex 39.5 44.5798 39.3969
      vertex 0 38 30
    endloop
  endfacet
  facet normal 1 0 0
    outer loop
      vertex 9 66.3169 41.8777
      vertex 9 66 42.0996
      vertex 9 66 41.4252
    endloop
  endfacet
  facet normal 1 0 0
    outer loop
      vertex 9 52.8967 51.2746
      vertex 9 45.9218 38.4572
      vertex 9 54.2387 50.3349
    endloop
  endfacet
  facet normal 1 0 -0
    outer loop
      vertex 9 45.9218 38.4572
      vertex 9 52.8967 51.2746
      vertex 9 44.5798 39.3969
    endloop
  endfacet
  facet normal -1 0 0
    outer loop
      vertex 39.5 66 42.0996
      vertex 39.5 66.3169 41.8777
      vertex 39.5 66 41.4252
    endloop
  endfacet
  facet normal -1 0 0
    outer loop
      vertex 39.5 45.9218 38.4572
      vertex 39.5 52.8967 51.2746
      vertex 39.5 54.2387 50.3349
    endloop
  endfacet
  facet normal -1 0 0
    outer loop
      vertex 39.5 52.8967 51.2746
      vertex 39.5 45.9218 38.4572
      vertex 39.5 44.5798 39.3969
    endloop
  endfacet
  facet normal -0 0.573585 0.819146
    outer loop
      vertex 9 45.9218 38.4572
      vertex 39.5 44.5798 39.3969
      vertex 39.5 45.9218 38.4572
    endloop
  endfacet
  facet normal 0 0.573585 0.819146
    outer loop
      vertex 39.5 44.5798 39.3969
      vertex 9 45.9218 38.4572
      vertex 9 44.5798 39.3969
    endloop
  endfacet
  facet normal 0 -0.573584 -0.819147
    outer loop
      vertex 9 66 42.0996
      vertex 39.5 66.3169 41.8777
      vertex 39.5 66 42.0996
    endloop
  endfacet
  facet normal -0 -0.573584 -0.819147
    outer loop
      vertex 39.5 66.3169 41.8777
      vertex 9 66 42.0996
      vertex 9 66.3169 41.8777
    endloop
  endfacet
  facet normal 0 -0.573585 -0.819146
    outer loop
      vertex 9 52.8967 51.2746
      vertex 39.5 54.2387 50.3349
      vertex 39.5 52.8967 51.2746
    endloop
  endfacet
  facet normal -0 -0.573585 -0.819146
    outer loop
      vertex 39.5 54.2387 50.3349
      vertex 9 52.8967 51.2746
      vertex 9 54.2387 50.3349
    endloop
  endfacet
  facet normal 0 -0.819104 0.573645
    outer loop
      vertex 9 66 41.4252
      vertex 39.5 66.3169 41.8777
      vertex 9 66.3169 41.8777
    endloop
  endfacet
  facet normal 0 -0.819104 0.573645
    outer loop
      vertex 39.5 66.3169 41.8777
      vertex 9 66 41.4252
      vertex 39.5 66 41.4252
    endloop
  endfacet
  facet normal 0 0 -1
    outer loop
      vertex 2 38 29
      vertex 68 42 29
      vertex 68 38 29
    endloop
  endfacet
  facet normal -0 0 -1
    outer loop
      vertex 68 42 29
      vertex 2 38 29
      vertex 2 42 29
    endloop
  endfacet
  facet normal 0 1 -0
    outer loop
      vertex 68 42 29
      vertex 2 42 30
      vertex 68 42 30
    endloop
  endfacet
  facet normal 0 1 0
    outer loop
      vertex 2 42 30
      vertex 68 42 29
      vertex 2 42 29
    endloop
  endfacet
endsolid OpenSCAD_Model
